<?xml version="1.0" encoding="UTF-8" standalone="no"?>
<svg width="95px" height="95px" viewBox="0 0 95 95" version="1.1" xmlns="http://www.w3.org/2000/svg" xmlns:xlink="http://www.w3.org/1999/xlink" xmlns:sketch="http://www.bohemiancoding.com/sketch/ns">
    <title>Slice 1</title>
    <description>Created with Sketch (http://www.bohemiancoding.com/sketch)</description>
    <defs>
        <radialGradient cx="0%" cy="33.2730263%" fx="0%" fy="33.2730263%" r="106.439233%" id="radialGradient-1">
            <stop stop-color="#FFFFFF" offset="0%"></stop>
            <stop stop-color="#EAEAEA" offset="100%"></stop>
        </radialGradient>
        <filter x="-50%" y="-50%" width="200%" height="200%" filterUnits="objectBoundingBox" id="filter-2">
            <feOffset dx="0" dy="2" in="SourceAlpha" result="shadowOffsetInner1"></feOffset>
            <feGaussianBlur stdDeviation="1.5" in="shadowOffsetInner1" result="shadowBlurInner1"></feGaussianBlur>
            <feComposite in="shadowBlurInner1" in2="SourceAlpha" operator="arithmetic" k2="-1" k3="1" result="shadowInnerInner1"></feComposite>
            <feColorMatrix values="0 0 0 0 0   0 0 0 0 0   0 0 0 0 0  0 0 0 0.7 0" in="shadowInnerInner1" type="matrix" result="shadowMatrixInner1"></feColorMatrix>
            <feMerge>
                <feMergeNode in="SourceGraphic"></feMergeNode>
                <feMergeNode in="shadowMatrixInner1"></feMergeNode>
            </feMerge>
        </filter>
    </defs>
    <g id="Page-1" stroke="none" stroke-width="1" fill="none" fill-rule="evenodd" sketch:type="MSPage">
        <circle id="Oval-1" fill="url(#radialGradient-1)" sketch:type="MSShapeGroup" cx="47.5" cy="47.5" r="47.5"></circle>
         <svg width="50px" height="50px" viewBox="0 0 256 315" version="1.1" xmlns="http://www.w3.org/2000/svg" xmlns:xlink="http://www.w3.org/1999/xlink" preserveAspectRatio="xMidYMid">
    <g>
        <path d="M213.803394,167.030943 C214.2452,214.609646 255.542482,230.442639 256,230.644727 C255.650812,231.761357 249.401383,253.208293 234.24263,275.361446 C221.138555,294.513969 207.538253,313.596333 186.113759,313.991545 C165.062051,314.379442 158.292752,301.507828 134.22469,301.507828 C110.163898,301.507828 102.642899,313.596301 82.7151126,314.379442 C62.0350407,315.16201 46.2873831,293.668525 33.0744079,274.586162 C6.07529317,235.552544 -14.5576169,164.286328 13.147166,116.18047 C26.9103111,92.2909053 51.5060917,77.1630356 78.2026125,76.7751096 C98.5099145,76.3877456 117.677594,90.4371851 130.091705,90.4371851 C142.497945,90.4371851 165.790755,73.5415029 190.277627,76.0228474 C200.528668,76.4495055 229.303509,80.1636878 247.780625,107.209389 C246.291825,108.132333 213.44635,127.253405 213.803394,167.030988 M174.239142,50.1987033 C185.218331,36.9088319 192.607958,18.4081019 190.591988,0 C174.766312,0.636050225 155.629514,10.5457909 144.278109,23.8283506 C134.10507,35.5906758 125.195775,54.4170275 127.599657,72.4607932 C145.239231,73.8255433 163.259413,63.4970262 174.239142,50.1987249" fill="#000000" class="svg-icon svg-icon--twitter"></path>
    </g>
</svg>
<!--
         <path d="M213.803394,167.030943 C214.2452,214.609646 255.542482,230.442639 256,230.644727 C255.650812,231.761357 249.401383,253.208293 234.24263,275.361446 C221.138555,294.513969 207.538253,313.596333 186.113759,313.991545 C165.062051,314.379442 158.292752,301.507828 134.22469,301.507828 C110.163898,301.507828 102.642899,313.596301 82.7151126,314.379442 C62.0350407,315.16201 46.2873831,293.668525 33.0744079,274.586162 C6.07529317,235.552544 -14.5576169,164.286328 13.147166,116.18047 C26.9103111,92.2909053 51.5060917,77.1630356 78.2026125,76.7751096 C98.5099145,76.3877456 117.677594,90.4371851 130.091705,90.4371851 C142.497945,90.4371851 165.790755,73.5415029 190.277627,76.0228474 C200.528668,76.4495055 229.303509,80.1636878 247.780625,107.209389 C246.291825,108.132333 213.44635,127.253405 213.803394,167.030988 M174.239142,50.1987033 C185.218331,36.9088319 192.607958,18.4081019 190.591988,0 C174.766312,0.636050225 155.629514,10.5457909 144.278109,23.8283506 C134.10507,35.5906758 125.195775,54.4170275 127.599657,72.4607932 C145.239231,73.8255433 163.259413,63.4970262 174.239142,50.1987249" id="Shape" fill="#61B6E1" filter="url(#filter-2)" class="svg-icon svg-icontwitter" sketch:type="MSShapeGroup"></path>
         <path d="M69.8725406,35.6414587 C72.0753066,34.3293485 73.7669914,32.251258 74.5633804,29.7754323 C72.502127,30.9905661 70.2189042,31.8729937 67.788843,32.3484233 C65.842854,30.2877243 63.0700431,29 60.0018435,29 C54.1096679,29 49.3330456,33.7473017 49.3330456,39.6027419 C49.3330456,40.4337513 49.4273873,41.2430214 49.6092235,42.0190208 C40.7428097,41.5768618 32.8818204,37.3556518 27.6199847,30.9406602 C26.7016742,32.5066478 26.1755667,34.3280253 26.1755667,36.271143 C26.1755667,39.949626 28.0589782,43.1950238 30.921566,45.0965532 C29.1728197,45.0415433 27.5277352,44.5646014 26.0894037,43.7702653 C26.0886429,43.8145001 26.0884527,43.8589239 26.0884527,43.9035368 C26.0884527,49.0408231 29.7658794,53.3263059 34.6463537,54.3004168 C33.751058,54.542574 32.8085914,54.6722538 31.835692,54.6722538 C31.1482905,54.6722538 30.4799096,54.6057125 29.8284569,54.4820819 C31.1861414,58.6944072 35.1260512,61.7600302 39.7944467,61.8456643 C36.1432684,64.6893572 31.5431565,66.3844575 26.5449451,66.3844575 C25.6838863,66.3844575 24.8346203,66.3341735 24,66.2364411 C28.7212726,69.2447857 34.3290915,71 40.3536499,71 C59.9769267,71 70.7075413,54.8435219 70.7075413,40.8322426 C70.7075413,40.3725031 70.69708,39.9152211 70.676728,39.4605857 C72.7609962,37.9656762 74.5696572,36.0981735 76,33.9718784 C74.0867262,34.8151752 72.0307986,35.3853127 69.8725406,35.6414587 Z" id="Shape" fill="#61B6E1" filter="url(#filter-2)" class="svg-icon svg-icontwitter" sketch:type="MSShapeGroup"></path> -->
    </g>
</svg>