<svg xmlns="http://www.w3.org/2000/svg" height="200" width="300" viewBox="-33.9 -16.139975 293.8 96.83985"><path d="M118.72 0h4.19c.21 21.17-.47 42.36.43 63.51l-4.04.03c0-2.69.01-5.39.07-8.08-3.1 5.43-8.85 9.49-15.3 9.07-8.42.23-15.3-6.84-17.06-14.68-2.08-9.22-.45-20.32 7.21-26.6 7.27-6.06 19.51-4.68 24.56 3.58-.14-8.94-.03-17.89-.06-26.83m-17.31 23.61c-7.04 1.99-10.55 9.63-10.92 16.43-.49 6.5.99 13.88 6.31 18.16 4.59 3.68 11.75 3.55 16.3-.12 3.95-3.02 5.85-8.13 5.63-13.01-.18-5.23.86-10.99-2.19-15.63-3.02-5.07-9.51-7.39-15.13-5.83zM15.59 3.8c8.68-1.21 18.48-2.65 26.29 2.31 9.31 6.61 8.29 22.61-1.18 28.62-6.14 3.98-13.92 4.2-20.93 3.03.03 8.57-.05 17.15.05 25.72-1.42.02-2.83.05-4.25.06.03-19.91-.01-39.83.02-59.74m4.2 3.1c-.03 9.06-.03 18.12 0 27.18 5.63.82 11.73 1.29 17-1.29 9.27-4.13 10.04-19.77.86-24.4-5.5-2.88-11.94-2.17-17.86-1.49zm142.92-3.75c1.41.03 2.81.05 4.22.08 6.97 20.11 14.05 40.18 21.09 60.26-1.47.02-2.93.04-4.4.07-2.47-7.02-4.87-14.07-7.34-21.09-7.71.01-15.42.01-23.13 0-2.46 6.99-4.93 13.98-7.29 21.01-1.47.02-2.95.04-4.42.05 7.15-20.1 14.18-40.25 21.27-60.38m2.1 4.8c-2.95 10.47-6.83 20.63-10.43 30.89 6.85-.04 13.7.02 20.54-.04-3.45-10.25-7.68-20.28-10.11-30.85zM0 6.13c1.16-1.81 3.54-3.43 5.55-1.8 2.62 1.46 2.12 5.76-.8 6.49-1.9.68-3.6-.52-4.75-1.92zm194.15-1.97c2.83-1.83 6.69 1.86 5.05 4.79-1.09 2.58-5.26 2.74-6.55.27-.79-1.74-.37-4.19 1.5-5.06zM53.19 23.02c5.42-3.35 12.34-4.63 18.44-2.5 4.9 1.87 7.77 7.01 8.07 12.08.61 10.3-.34 20.66.82 30.95-.98-.01-2.94-.02-3.92-.02-.18-2.04-.35-4.09-.5-6.13-4.44 6.4-13.72 9.39-20.64 5.26-6.94-4.14-6.92-15.15-.92-20.11 5.84-5.04 13.96-5.29 21.27-5.57-.04-4.6-.7-10.21-5.23-12.63-5.31-2.67-11.33-.48-16.39 1.7-.25-.76-.75-2.27-1-3.03m5.09 21.29c-5.02 3.42-5.16 12.15.11 15.38 5.33 2.8 12.6.49 15.64-4.65 2.81-4.32 1.3-9.71 1.72-14.53-5.94-.03-12.48.14-17.47 3.8zm149.83-23.82c1.34.02 2.68.02 4.03.03.01 2.88.01 5.76-.04 8.64 2.26-5.67 7.42-10.41 13.9-9.76v4.2c-2.57.22-5.41.18-7.53 1.89-4.43 3.35-5.94 9.21-5.94 14.53-.04 7.84.01 15.68 0 23.52-1.41-.01-2.81-.01-4.21-.02-.03-14.34.37-28.69-.21-43.03zM1.49 20.48c1.41.01 2.83.03 4.24.05-.11 14.35.02 28.69-.07 43.04-1.04-.01-3.13-.04-4.17-.05.01-14.35.01-28.7 0-43.04zm192.25.02l4.34.03c-.17 14.32-.19 28.65.02 42.97-1.46 0-2.91.01-4.36.02.01-14.34.01-28.68 0-43.02z" fill="#231f20"/></svg>