<?xml version="1.0" encoding="utf-8"?>
<!-- Generator: Adobe Illustrator 16.0.0, SVG Export Plug-In . SVG Version: 6.00 Build 0)  -->
<!DOCTYPE svg PUBLIC "-//W3C//DTD SVG 1.1//EN" "http://www.w3.org/Graphics/SVG/1.1/DTD/svg11.dtd" [
	<!ENTITY ns_extend "http://ns.adobe.com/Extensibility/1.0/">
	<!ENTITY ns_ai "http://ns.adobe.com/AdobeIllustrator/10.0/">
	<!ENTITY ns_graphs "http://ns.adobe.com/Graphs/1.0/">
	<!ENTITY ns_vars "http://ns.adobe.com/Variables/1.0/">
	<!ENTITY ns_imrep "http://ns.adobe.com/ImageReplacement/1.0/">
	<!ENTITY ns_sfw "http://ns.adobe.com/SaveForWeb/1.0/">
	<!ENTITY ns_custom "http://ns.adobe.com/GenericCustomNamespace/1.0/">
	<!ENTITY ns_adobe_xpath "http://ns.adobe.com/XPath/1.0/">
]>
<svg version="1.1"
	 id="Layer_1" xmlns:x="&ns_extend;" xmlns:i="&ns_ai;" xmlns:graph="&ns_graphs;" xmlns:sketch="http://www.bohemiancoding.com/sketch/ns"
	 xmlns="http://www.w3.org/2000/svg" xmlns:xlink="http://www.w3.org/1999/xlink" x="0px" y="0px" width="80px" height="80px"
	 viewBox="0 0 80 80" enable-background="new 0 0 80 80" xml:space="preserve">
<metadata>
	<sfw  xmlns="&ns_sfw;">
		<slices></slices>
		<sliceSourceBounds  y="3.25" x="-3.884" height="38.501" width="50.766" bottomLeftOrigin="true"></sliceSourceBounds>
	</sfw>
</metadata>
<title>Slice 1</title>
<description>Created with Sketch (http://www.bohemiancoding.com/sketch)</description>
<g id="Page-1" sketch:type="MSPage" opacity="0.75">
	
	<svg version="1.1" id="Layer_1" xmlns="http://www.w3.org/2000/svg" xmlns:xlink="http://www.w3.org/1999/xlink" x="0px" y="0px"
	 width="85px" height="85px" viewBox="0 0 850.4 850.4" style="enable-background:new 0 0 850.4 850.4;" xml:space="preserve"
	>
<style type="text/css">
	.st0{fill:#664B49;}
	.st1{fill:#369464;}
</style>
<g>
	<path class="st0" d="M446.3,711.6c-0.8-0.2-1.6-0.5-2.4-0.7c-7.6-2-15.4-3-23.2-3c-8.7,0-17.3,1.2-25.6,3.7l-0.1,0
		c-0.9,0.2-1.7,0.5-2.6,0.8c-0.3,0.1-0.6,0.2-0.9,0.3v131.5h55.7V711.8C446.8,711.8,446.5,711.7,446.3,711.6z"/>
	<path class="st1" d="M683.5,720.3c0,4.2-2,8.1-5.3,10.6c-15.9,11.7-38,17.7-65.7,17.7c-40.7,0-92.6-12.3-158.8-37.5
		c-2.2-0.8-4.4-1.6-6.7-2.3c-0.8-0.3-1.7-0.5-2.5-0.7c-7.8-2.1-15.9-3.1-24-3.1c-8.9,0-17.8,1.3-26.4,3.8l-0.2,0
		c-0.8,0.2-1.7,0.5-2.6,0.8c-1,0.3-2,0.7-3,1c-47.4,17.1-114.9,37.5-166.9,37.5c-27.8,0-48.8-5.9-62.6-17.7
		c-3.1-2.6-4.7-6.4-4.6-10.4c0.2-4,2.1-7.7,5.4-10.1c44.1-32,69.8-68.1,99.6-109.9c16-22.5,32.6-45.7,53.8-70.9
		c16.5-19.7,33.7-45,42.4-65.7c-22.6,15.4-52.8,29.9-67.8,36.7c-31.1,14.2-74.2,30.7-93.3,30.7c0,0,0,0,0,0c-10,0-14-4.5-15.7-8.3
		c-4-9,3.7-17.3,6.6-20.5c10.2-11.1,20.8-22.4,32-34.3c59-62.6,125.1-132.7,142.3-196.4c-32.8,21.1-72.1,32.8-111.1,32.8
		c-5.6,0-11.2-0.3-16.7-0.7c-5.6-0.4-10.1-4.5-11.2-10.1c-1.1-5.6,1.6-11.1,6.7-13.7c12.4-6.4,23.6-17.1,33.6-26.6
		c15.9-15.2,31.9-30.3,47.8-45.5c11.7-11.1,23.8-22.6,33.3-35.6c10.7-14.6,18.5-31.5,25.3-47.6c1.5-3.4,3-7,4.5-10.6
		c12.8-30.1,28.8-67.6,37.1-97.5l0.1-0.3c1.4-4.5,5.5-7.6,10.2-7.6c4.8,0,9,3.2,10.3,7.9c8.8,31.6,25.5,71.1,39,102.8l2.2,5.3
		c6.8,16.1,14.6,33,25.3,47.6c9.7,13.2,22.3,25.1,33.3,35.6c7.8,7.4,15.6,14.8,23.3,22.2c8.2,7.8,16.3,15.6,24.5,23.3
		c10.4,9.9,21.2,20.2,33.6,26.6c5,2.6,7.7,8.1,6.6,13.7c-1.1,5.6-5.7,9.6-11.3,10.1c-5.4,0.5-11,0.7-16.6,0.7
		c-39,0-78.4-11.8-111.1-32.8c17.3,63.6,83.3,133.7,142.4,196.3c11.2,11.9,21.9,23.2,32,34.3c2.9,3.1,10.5,11.5,6.6,20.5
		c-1.7,3.8-5.8,8.3-15.7,8.3c-19.1,0-62.2-16.5-93.3-30.7c-15-6.8-45.2-21.3-67.8-36.7c8.7,20.6,25.8,45.9,42.4,65.6
		c21.1,25.2,37.7,48.4,53.8,70.9c29.8,41.7,55.4,77.7,99.3,109.7C681.5,712.3,683.5,716.2,683.5,720.3z"/>
	<path d="M230.9,521.7v1.2c-0.6,0.2-1.2,0.4-1.8,0.6L230.9,521.7z M194.3,531C194.3,531,194.3,531,194.3,531c1.1,0,2.2-0.1,3.4-0.2
		l33.2-33.1v-5.9l-39.2,39C192.5,531,193.4,531,194.3,531z M243.8,268.7h1l6.2-6.1C248.6,264.7,246.2,266.7,243.8,268.7z
		 M221.2,286.5c-0.8,2-1,4.3-0.7,6.6l10.4-10.3v-4.9c-0.8,0.5-1.6,0.9-2.3,1.3L221.2,286.5z M230.9,501.8l-28.6,28.5
		c2.3-0.3,4.8-0.8,7.4-1.4l21.3-21.2V501.8z M223.7,299.8l7.1-7.1v-5.9l-9.5,9.4C222,297.6,222.8,298.8,223.7,299.8z M230.9,511.8
		l-15.9,15.9c2.7-0.7,5.4-1.5,8.3-2.3l7.6-7.6V511.8z M376.3,107.5h-1.7c-0.4,1-0.8,2-1.2,2.9L376.3,107.5z M656.4,506.4l-23.5,23.4
		c1.8,0.3,3.5,0.6,5.1,0.8l20.6-20.6C657.9,508.7,657.2,507.5,656.4,506.4z M611.9,301.8l3.9-3.8c0.8-1.3,1.4-2.8,1.8-4.4
		c0.2-1.2,0.3-2.3,0.2-3.5l-10.5,10.5v3C608.9,303.3,610.5,302.7,611.9,301.8z M230.9,296.7l-4.9,4.9c1.3,0.8,2.7,1.4,4.2,1.8
		l0.8-0.8V296.7z M629.5,529.1l25.1-25c-0.6-0.8-1.2-1.4-1.7-1.9c-0.4-0.4-0.7-0.8-1.1-1.2l-27.1,27
		C626.3,528.4,627.9,528.8,629.5,529.1z M607.2,286.6l5.6-5.6c-0.6-0.4-1.2-0.8-1.9-1.2c-0.6-0.3-1.3-0.7-1.9-1l-1.8,1.8V286.6z
		 M607.2,296.6l9.8-9.8c-0.5-1.4-1.2-2.6-2.2-3.8l-7.7,7.6V296.6z M441.8,53.7c-4.8-12.9-9.1-25.6-12.3-37.1
		c-1.3-4.6-5.5-7.9-10.3-7.9c-4.7,0-8.8,3-10.2,7.6l-0.1,0.3c-3.7,13.3-8.9,28.1-14.7,43l5.9-5.9h4l-12,12v5.9l18-17.9h4l-22,21.9
		v5.9l27.9-27.8h4l-32,31.8v5.9l37.9-37.8h4l-42,41.8v5.9l47.9-47.7H441.8z M601.3,483.7h5.9v8l8-8h4l-12,12v5.9l18-17.9h4l-22,21.9
		v5.9l27.9-27.8h0.6c-4.9-5.2-9.8-10.5-14.9-15.9c-5.4-5.7-10.8-11.5-16.2-17.3l-33.2,33.1h5.9l29.9-29.8v4l-25.9,25.8h5.9
		l19.9-19.8v4l-15.9,15.8h5.9l10-9.9v4L601.3,483.7z M553.4,491.9l-6.7,6.7c1.3,0.6,2.6,1.2,3.7,1.7c0.1,0,0.2,0.1,0.3,0.1l2.7-2.7
		V491.9z M553.4,736.7l-4.1,4.1c1.4,0.3,2.7,0.6,4.1,0.9V736.7z M553.4,732.7v-5.9L541.2,739c1.6,0.4,3.2,0.8,4.8,1.1L553.4,732.7z
		 M445.9,708.5v-1.6l-1.3,1.3C445.1,708.3,445.5,708.4,445.9,708.5z M318.3,732.9l20.1-20v-5.9l-28.2,28
		C312.9,734.3,315.6,733.6,318.3,732.9z M553.4,722.8v-5.9L533.2,737c1.6,0.4,3.2,0.8,4.7,1.2L553.4,722.8z M661,702.9l-45.9,45.7
		c-0.8,0-1.7,0-2.5,0c-1.1,0-2.3,0-3.4,0l50-49.8h-4l-47.9,47.7v-5.9l42-41.8h-4l-37.9,37.8v-5.9l32-31.8h-4l-27.9,27.8v-5.9
		l22-21.9h-4l-18,17.9v-5.9l12-12h-4l-8,8v-8h-5.9l5.9-5.9v-4l-10,9.9h-5.9l15.9-15.8v-4l-19.9,19.8h-5.9l25.9-25.8v-4l-29.9,29.8
		h-5.9l35.9-35.7v-4l-39.9,39.7h-5.9l45.8-45.6v-4l-49.9,49.7h-3.9v4.1L522.2,734c-1.5-0.4-3.1-0.9-4.6-1.3l34.1-33.9h-4l-33.1,33
		c-1.5-0.4-3-0.9-4.6-1.4l31.8-31.6h-4l-30.8,30.7c-1.5-0.5-3-0.9-4.5-1.4l29.4-29.3h-4l-27.9,27.8v-5.9l22-21.9h-4l-18,17.9v-5.9
		l12-12h-4l-8,8v-8h-5.9l5.9-5.9v-4l-10,9.9h-5.9l15.9-15.8v-4l-19.9,19.8h-5.9l25.9-25.8v-4l-29.9,29.8h-5.9l35.9-35.7v-4
		l-39.9,39.7h-5.9l45.8-45.6v-4l-49.9,49.7h-3.9v4.1l-4.5,4.5c-1.6-0.4-3.3-0.7-5-1l7.6-7.6h-4l-7.1,7.1c-1.8-0.2-3.6-0.4-5.4-0.6
		l6.5-6.5h-4l-6.3,6.3c-1.1,0-2.1-0.1-3.2-0.1c-0.9,0-1.8,0-2.8,0l6.3-6.3h-4l-6.5,6.5c-2.2,0.2-4.5,0.4-6.7,0.7l7.3-7.3h-4
		l-8.2,8.1c-2.6,0.5-5.2,1.2-7.8,1.9l-0.1,0l10.1-10.1h-4l-8,8v-8h-5.9l5.9-5.9v-4l-10,9.9h-5.9l15.9-15.8v-4l-19.9,19.8h-5.9
		l25.9-25.8v-4l-29.9,29.8h-5.9l35.9-35.7v-4l-39.9,39.7h-5.9l45.8-45.6v-4l-49.9,49.7h-3.9v4.1l-33.5,33.4
		c-2.6,0.6-5.2,1.3-7.8,1.8l39.5-39.3h-4l-40.7,40.5c-2.4,0.5-4.8,1-7.2,1.5v-0.3l42-41.8h-4l-37.9,37.8v-5.9l32-31.8h-4l-27.9,27.8
		v-5.9l22-21.9h-4l-18,17.9v-5.9l12-12h-4l-8,8v-8h-5.9l5.9-5.9v-4l-10,9.9h-5.9l15.9-15.8v-4l-19.9,19.8h-5.9l25.9-25.8v-4
		l-29.9,29.8h-5.9l35.9-35.7v-4l-39.9,39.7h-5.9l45.8-45.6v-4l-49.9,49.7h-3.9v4.1l-42,41.9c-1.6-0.4-3.2-0.8-4.7-1.3l44.9-44.7h-4
		l-44,43.8c-1.3-0.4-2.7-0.9-3.9-1.4v-0.6l42-41.8h-4l-37.9,37.8v-5.9l32-31.8h-4l-27.9,27.8v-5.9l22-21.9h-4l-18,17.9v-5.9l12-12
		h-4l-8,8v-8h-2.9c22.3-18.3,39.7-37.9,56.1-59.1l0.5-0.5v5.9h8l-8,7.9v4l12-12h5.9l-18,17.9v4l22-21.9h5.9l-27.9,27.8v4l32-31.8
		h5.9l-37.9,37.8v4l42-41.8h5.9l-47.9,47.7v4l51.9-51.7h1.8v-2l51.9-51.7h-4L284.6,639v-5.9l42-41.8h-4L284.6,629v-5.9l32-31.8h-4
		l-27.9,27.8v-5.9l22-21.9h-4l-18,17.9v-5.9l12-12h-4l-8,8v-8h-5.9l5.9-5.9v-4l-10,9.9h-5.9l15.9-15.8v-4L268,588
		c5.1-7.1,10.3-14.3,15.8-21.7l0.8-0.8v-0.3c8.7-11.6,18-23.6,28.4-36c2.9-3.5,5.9-7.2,8.8-11l16.5-16.5v5.9l-29.9,29.8h4l25.9-25.8
		v5.9l-19.9,19.8h4l15.9-15.8v5.9l-10,9.9h4l5.9-5.9v5.9h8l-8,7.9v4l12-12h5.9l-18,17.9v4l22-21.9h5.9l-27.9,27.8v4l32-31.8h5.9
		l-37.9,37.8v4l42-41.8h5.9l-47.9,47.7v4l51.9-51.7h1.8v-2l51.9-51.7h-4l-47.9,47.7v-5.9l42-41.8h-4l-37.9,37.8v-5.9l32-31.8h-4
		l-27.9,27.8v-5.9l22-21.9h-4l-18,17.9v-5.9l12-12h-4l-8,8v-8h-5.9l5.9-5.9v-4l-10,9.9h-5.9l15.9-15.8v-4l-19.9,19.8h-5.9l25.9-25.8
		v-4l-29.9,29.8h-5.9l35.9-35.7v-4l-39.9,39.7h-5.9l45.8-45.6v-4l-43.3,43.1c2.1-4,4-7.8,5.7-11.5l35.8-35.6h1.8v-2l51.9-51.7h-4
		L392.2,424V418l42-41.8h-4L392.2,414v-5.9l32-31.8h-4l-27.9,27.8v-5.9l22-21.9h-4l-18,17.9v-5.9l12-12h-4l-8,8v-8h-5.9l5.9-5.9v-4
		l-10,9.9h-5.9l15.9-15.8v-4l-19.9,19.8h-5.9l25.9-25.8v-4l-29.9,29.8h-5.9l35.9-35.7v-4l-39.9,39.7h-5.9l45.8-45.6v-4l-49.9,49.7
		h-3.9v4.1L288.5,430h4l45.8-45.6v5.9L298.5,430h4l35.9-35.7v5.9L308.5,430h4l25.9-25.8v5.9L318.5,430h4l15.9-15.8v5.9l-10,9.9h4
		l5.9-5.9v5.9h8l-8,7.9v4l12-12h5.9l-18,17.9v4l22-21.9h5.9l-27.9,27.8v4l32-31.8h5.9l-37.9,37.8v4l42-41.8h5.9l-39.2,39.1
		c-11.6,7.3-24.3,14.1-35.6,19.8l5.1-5.1h-4l-9.1,9.1c-4.2,2-8,3.9-11.4,5.4l14.6-14.5h-4l-18,17.9v-5.9l12-12h-4l-8,8v-8h-5.9
		l5.9-5.9v-4l-10,9.9h-5.9l15.9-15.8v-4l-19.9,19.8h-5.9l25.9-25.8v-4l-29.9,29.8h-5.9l35.9-35.7v-4l-39.9,39.7h-5.9l45.8-45.6v-4
		l-49.9,49.7h-3.9v4.1l-42.6,42.5c-1.7-0.4-3.1-1-4.3-1.7l45.1-44.9h-4L181.6,527c-1.1-1.1-2-2.2-2.6-3.3l40-39.8h-4l-37.1,37
		c-0.5-2-0.5-3.9-0.2-5.7l31.3-31.2h-4l-24.6,24.4c1.6-2.6,3.6-4.7,4.7-6c10.2-11.1,20.8-22.4,32-34.3c11-11.6,22.2-23.5,33.3-35.6
		l2.3-2.3h5.9l-27.9,27.8v4l32-31.8h5.9l-37.9,37.8v4l42-41.8h5.9l-47.9,47.7v4l51.9-51.7h1.8v-2l51.9-51.7h-4L284.6,424V418
		l42-41.8h-4L284.6,414v-5.9l32-31.8h-4l-27.9,27.8v-5.9l22-21.9h-4l-18,17.9v-0.2c20.8-24.5,39.7-49.3,53.8-73.7v2.2h8l-8,7.9v4
		l12-12h5.9l-18,17.9v4l22-21.9h5.9l-27.9,27.8v4l32-31.8h5.9l-37.9,37.8v4l42-41.8h5.9l-47.9,47.7v4l51.9-51.7h1.8v-2l51.9-51.7h-4
		l-47.9,47.7v-5.9l42-41.8h-4l-37.9,37.8v-5.9l32-31.8h-4l-27.9,27.8v-5.9l22-21.9h-4l-18,17.9v-5.9l12-12h-4l-8,8v-8h-5.9l5.9-5.9
		v-4l-10,9.9h-5.9l15.9-15.8v-4l-19.9,19.8h-5.9l25.9-25.8v-4l-29.9,29.8h-5.9l35.9-35.7v-4l-39.9,39.7h-5.9l45.8-45.6v-4
		l-49.9,49.7h-3.9v4.1l-18.7,18.6c-3,1.1-6,2.2-9.1,3.1l25.9-25.8h-4l-27.7,27.6c-2.7,0.8-5.4,1.5-8.1,2.2l29.9-29.7h-4l-31.1,31
		c-2.3,0.5-4.5,1-6.8,1.4v-0.5l32-31.8h-4l-27.9,27.8v-5.9l22-21.9h-4l-18,17.9v-5.9l12-12h-4l-8,8v-8h-5.9l5.9-5.9v-4l-10,9.9h-5.9
		l15.9-15.8v-4l-19.9,19.8h-5.9l25.9-25.8v-4l-29.9,29.8h-5.9l35.9-35.7v-2.4c5.5-5.2,11-10.4,16.5-15.7h1.4l35.9-35.7v5.9
		L308.5,215h4l25.9-25.8v5.9L318.5,215h4l15.9-15.8v5.9l-10,9.9h4l5.9-5.9v5.9h8l-8,7.9v4l12-12h5.9l-18,17.9v4l22-21.9h5.9
		l-27.9,27.8v4l32-31.8h5.9l-37.9,37.8v4l42-41.8h5.9l-47.9,47.7v4l51.9-51.7h1.8v-2l51.9-51.7h-4l-47.9,47.7V203l42-41.8h-4
		L392.2,199v-5.9l32-31.8h-4l-27.9,27.8v-5.9l22-21.9h-4l-18,17.9v-5.9l12-12h-4l-8,8v-8h-5.9l5.9-5.9v-4l-10,9.9h-5.9l15.9-15.8v-4
		l-19.9,19.8h-5.9l25.9-25.8v-4l-29.9,29.8h-5.9l35.9-35.7v-4l-39.9,39.7h-3c1.4-2.3,2.7-4.6,4-6.9l38.9-38.7v-4l-34.5,34.4
		c1.8-3.7,3.6-7.4,5.2-11.1l27.4-27.3h1.8v-2l50.3-50.1c0.5,1.4,1.1,2.9,1.6,4.3l-48,47.8h4l45.1-44.9c0.2,0.6,0.5,1.3,0.7,1.9v3.3
		L406,107.5h4l35.9-35.7v5.9L416,107.5h4l25.9-25.8v5.9L426,107.5h4l15.9-15.8v5.9l-10,9.9h4l5.9-5.9v5.9h8l-8,7.9v4l12-12h5.5
		c0,0.1,0.1,0.2,0.1,0.3l-17.7,17.6v4l18.9-18.8c0.6,1.4,1.2,2.8,1.8,4.2l-20.6,20.5v4l21.8-21.7c0.3,0.6,0.5,1.2,0.8,1.8l1,2.3
		l-23.6,23.5v4l24.8-24.7l0,0.1c0.6,1.3,1.1,2.7,1.7,4l-26.6,26.5v4l27.8-27.7c0.6,1.4,1.2,2.7,1.8,4.1l-25.7,25.6h-3.9v4.1L396,215
		h4l45.8-45.6v5.9L406,215h4l35.9-35.7v5.9L416,215h4l25.9-25.8v5.9L426,215h4l15.9-15.8v5.9l-10,9.9h4l5.9-5.9v5.9h8l-8,7.9v4
		l12-12h5.9l-18,17.9v4l22-21.9h5.9l-27.9,27.8v4l32-31.8h5.9l-37.9,37.8v4l42-41.8h5.9l-47.9,47.7v4l51.9-51.7h1.8v-2l17.3-17.2
		c1,1,2,2,3,2.9L503.6,215h4l14.4-14.3c1,1,2,2,3,2.9L513.5,215h4l9.5-9.4c0.8,0.8,1.6,1.5,2.4,2.3c0.2,0.2,0.4,0.4,0.7,0.6
		l-6.6,6.6h4l4.6-4.6c1,1,2,1.9,3,2.9l-1.7,1.7h3.5c5.3,5,10.5,10,15.8,15c0.6,0.6,1.2,1.1,1.8,1.7l-1.1,1.1v4l3.2-3.2
		c1,1,2,1.9,3,2.9l-6.2,6.2v4l8.3-8.3c1,1,2,1.9,3,2.9l-11.3,11.3v4l13.4-13.3c1,1,2,1.9,3,2.9l-16.4,16.4v4l18.5-18.4
		c1,1,2,1.9,3,2.9l-17.6,17.6h-3.9v4.1l-22.8,22.7c-1.5-0.5-3-0.9-4.5-1.4l25.5-25.4h-4l-24.5,24.4c-1.5-0.5-2.9-1-4.4-1.6
		l22.9-22.8h-4l-21.8,21.7c-1.4-0.5-2.8-1.1-4.3-1.7l20.1-20h-4l-18.9,18.8c-1.4-0.6-2.8-1.2-4.1-1.8l17.1-17h-4l-15.8,15.7
		c-0.7-0.3-1.4-0.7-2.2-1v-2.7l12-12h-4l-8,8v-8h-5.9l5.9-5.9v-4l-10,9.9h-5.9l15.9-15.8v-4l-19.9,19.8h-5.9l25.9-25.8v-4
		l-29.9,29.8h-5.9l35.9-35.7v-4l-39.9,39.7h-5.9l45.8-45.6v-4l-49.9,49.7h-3.9v4.1L396,322.5h4l45.8-45.6v5.9L406,322.5h4l35.9-35.7
		v5.9L416,322.5h4l25.9-25.8v5.9L426,322.5h4l15.9-15.8v5.9l-10,9.9h4l5.9-5.9v5.9h8l-8,7.9v4l12-12h5.9l-18,17.9v4l22-21.9h5.9
		l-27.9,27.8v4l32-31.8h5.9l-37.9,37.8v4l42-41.8h5.9l-47.9,47.7v4l51.9-51.7h1.8v-2l0.1-0.1c10.7,18.5,24.2,37.2,39.1,55.9h-1.3
		L499.7,414v-5.9l32-31.8h-4l-27.9,27.8v-5.9l22-21.9h-4l-18,17.9v-5.9l12-12h-4l-8,8v-8h-5.9l5.9-5.9v-4l-10,9.9h-5.9l15.9-15.8v-4
		l-19.9,19.8h-5.9l25.9-25.8v-4l-29.9,29.8h-5.9l35.9-35.7v-4l-39.9,39.7h-5.9l45.8-45.6v-4l-49.9,49.7h-3.9v4.1L396,430h4
		l45.8-45.6v5.9L406,430h4l35.9-35.7v5.9L416,430h4l25.9-25.8v5.9L426,430h4l15.9-15.8v5.9l-10,9.9h4l5.9-5.9v5.9h8l-8,7.9v4l12-12
		h5.9l-18,17.9v4l22-21.9h5.9l-27.9,27.8v4l32-31.8h5.9l-37.9,37.8v4l42-41.8h5.9l-47.9,47.7v4l51.9-51.7h1.8v-2l44.9-44.7
		c0.9,1.1,1.8,2.2,2.7,3.2L503.6,430h4l41.5-41.3c0.9,1.1,1.8,2.1,2.7,3.2L513.5,430h4l35.9-35.7v5.9L523.5,430h4l25.9-25.8v5.9
		L533.5,430h4l15.9-15.8v5.9l-10,9.9h4l5.9-5.9v5.9h8l-8,7.9v4l12-12h5.9l-18,17.9v4l22-21.9h5.9l-27.9,27.8v4l32-31.8h0
		c0.9,1,1.9,2.1,2.8,3.1l-34.8,34.7v4l36.7-36.6c0.9,1,1.9,2.1,2.9,3.1l-39.6,39.4v4l41.5-41.4c1,1,1.9,2.1,2.9,3.1l-40.5,40.3h-3.9
		v4.1l-9.5,9.4c-1.3-0.6-2.6-1.2-4-1.9l11.7-11.6h-4l-10.4,10.3c-1.3-0.6-2.6-1.3-4-1.9l8.4-8.4h-4l-7.1,7.1c-1.3-0.6-2.6-1.3-4-2
		l5.1-5.1h-4l-3.7,3.7c-1.3-0.7-2.6-1.3-3.9-2l1.7-1.7h-4l-0.3,0.3c-5.8-3.1-11.8-6.4-17.6-9.8v-0.5l-0.3,0.3
		c-1.2-0.7-2.5-1.5-3.7-2.2l4-4v-4l-6.5,6.5c-1.2-0.8-2.4-1.5-3.7-2.3l10.2-10.1v-4l-12.6,12.6c-1.2-0.8-2.4-1.6-3.6-2.4l16.2-16.1
		v-4l-39.9,39.7h-5.9l45.8-45.6v-4l-49.9,49.7h-3.9v4.1L396,537.5h4l45.8-45.6v5.9L406,537.5h4l35.9-35.7v5.9L416,537.5h4l25.9-25.8
		v5.9L426,537.5h4l15.9-15.8v5.9l-10,9.9h4l5.9-5.9v5.9h8l-8,7.9v4l12-12h5.9l-18,17.9v4l22-21.9h5.9l-27.9,27.8v4l32-31.8h5.9
		l-37.9,37.8v4l42-41.8h5.9l-47.9,47.7v4l51.9-51.7h1.8v-2l16.9-16.8c0.9,1.1,1.7,2.2,2.6,3.3l-15.6,15.5h4l13.3-13.3
		c0.9,1.1,1.8,2.2,2.7,3.3l-10.1,10h4l7.8-7.8c0.9,1.1,1.8,2.2,2.7,3.2l-4.6,4.6h4l2.4-2.4c8.5,10.3,16.2,20.3,23.6,30.1l-0.1,0.1v4
		l1.8-1.8c0.8,1.1,1.7,2.3,2.5,3.4l-4.3,4.3v4l6-6c0.8,1.1,1.7,2.3,2.5,3.4l-8.5,8.5v4l10.2-10.2c0.8,1.1,1.7,2.3,2.5,3.4l-8.8,8.8
		h-3.9v4.1L503.6,645h4l45.8-45.6v5.9L513.5,645h4l35.9-35.7v5.9L523.5,645h4l25.9-25.8v5.9L533.5,645h4l15.9-15.8v5.9l-10,9.9h4
		l5.9-5.9v5.9h8l-8,7.9v4l12-12h5.9l-18,17.9v4l22-21.9h5.9l-27.9,27.8v4l32-31.8h5.9l-37.9,37.8v4l42-41.8h5.9l-47.9,47.7v4
		l51.9-51.7h1.8v-2l1.8-1.8c0.9,1.1,1.7,2.2,2.6,3.3l-0.5,0.5h0.9c14.5,18.2,30,35.3,49,51.3v0.4l0.2-0.2c0.9,0.7,1.8,1.5,2.7,2.2
		H661V702.9z M444.1,591.3h-4L392.2,639v-5.9l42-41.8h-4L392.2,629v-5.9l32-31.8h-4l-27.9,27.8v-5.9l22-21.9h-4l-18,17.9v-5.9l12-12
		h-4l-8,8v-8h-5.9l5.9-5.9v-4l-10,9.9h-5.9l15.9-15.8v-4l-19.9,19.8h-5.9l25.9-25.8v-4l-29.9,29.8h-5.9l35.9-35.7v-4l-39.9,39.7
		h-5.9l45.8-45.6v-4l-49.9,49.7h-3.9v4.1L288.5,645h4l45.8-45.6v5.9L298.5,645h4l35.9-35.7v5.9L308.5,645h4l25.9-25.8v5.9L318.5,645
		h4l15.9-15.8v5.9l-10,9.9h4l5.9-5.9v5.9h8l-8,7.9v4l12-12h5.9l-18,17.9v4l22-21.9h5.9l-27.9,27.8v4l32-31.8h5.9l-37.9,37.8v4
		l42-41.8h5.9l-47.9,47.7v4l51.9-51.7h1.8v-2L444.1,591.3z M551.6,591.3h-4L499.7,639v-5.9l42-41.8h-4L499.7,629v-5.9l32-31.8h-4
		l-27.9,27.8v-5.9l22-21.9h-4l-18,17.9v-5.9l12-12h-4l-8,8v-8h-5.9l5.9-5.9v-4l-10,9.9h-5.9l15.9-15.8v-4l-19.9,19.8h-5.9l25.9-25.8
		v-4l-29.9,29.8h-5.9l35.9-35.7v-4l-39.9,39.7h-5.9l45.8-45.6v-4l-49.9,49.7h-3.9v4.1L396,645h4l45.8-45.6v5.9L406,645h4l35.9-35.7
		v5.9L416,645h4l25.9-25.8v5.9L426,645h4l15.9-15.8v5.9l-10,9.9h4l5.9-5.9v5.9h8l-8,7.9v4l12-12h5.9l-18,17.9v4l22-21.9h5.9
		l-27.9,27.8v4l32-31.8h5.9l-37.9,37.8v4l42-41.8h5.9l-47.9,47.7v4l51.9-51.7h1.8v-2L551.6,591.3z M530,736.1l23.4-23.3v-5.9
		l-28.1,28C526.9,735.3,528.5,735.7,530,736.1z M338.4,722.8v-5.9l-14.6,14.5c2.8-0.8,5.5-1.5,8.3-2.3L338.4,722.8z M337.1,284.1
		l1.3-1.3v-5.9l-12,12C330,287.4,333.6,285.8,337.1,284.1z M659.8,512.9L641.7,531c0.7,0,1.4,0.1,2.1,0.1c1.5,0,2.9-0.1,4.1-0.3
		l12.7-12.6C660.6,516.3,660.3,514.5,659.8,512.9z M338.4,726.8l-0.6,0.6c0.2-0.1,0.4-0.1,0.6-0.2V726.8z M338.4,494.9
		c-1.9,2.9-3.8,5.8-5.8,8.6l5.8-5.7V494.9z M230.9,732.7v-5.9l-21.1,21c1.9,0.1,3.7,0.2,5.7,0.3L230.9,732.7z M230.9,746.7l-1.4,1.4
		c0.5,0,0.9,0,1.4,0V746.7z M230.9,706.9l-38.7,38.6c1.6,0.3,3.3,0.6,5,0.9l33.7-33.6V706.9z M230.9,736.7l-11.5,11.4
		c0.7,0,1.4,0,2.1,0c1.3,0,2.6,0,3.8,0l5.5-5.5V736.7z M230.9,722.8v-5.9l-30.2,30.1c1.7,0.2,3.5,0.4,5.3,0.6L230.9,722.8z
		 M380.3,107.5l-9.9,9.9c-1.1,2.5-2.1,4.9-3.1,7.3c-0.4,1-0.8,2-1.3,3l20.3-20.2H380.3z M572,590.6l-0.6,0.6h1.1
		C572.3,591,572.1,590.8,572,590.6z M469.8,483.7l15.1-15.1c-0.6-1.4-1.3-2.7-1.8-4.1l-19.3,19.2H469.8z M607.2,638.9L607.2,638.9
		L607.2,638.9C607.2,639,607.2,639,607.2,638.9z M488.2,475.3c-0.7-1.3-1.4-2.6-2-3.9l-12.4,12.4h5.9L488.2,475.3z M499.7,424
		l43.1-42.9c-0.9-1.1-1.8-2.2-2.7-3.3L499.7,418V424z M491.7,481.8c-0.7-1.3-1.4-2.6-2.1-3.8l-5.8,5.8h5.9L491.7,481.8z
		 M567.3,483.7l35.3-35.2c-1-1-1.9-2-2.9-3.1l-38.4,38.2H567.3z M645.1,493.8c-0.9-1-1.9-2-2.9-3.1l-33,32.8c1.5,0.5,3,1,4.5,1.4
		L645.1,493.8z M567.3,591.2l3-3c-0.8-1.1-1.7-2.3-2.5-3.5l-6.5,6.4H567.3z M661,722.8v-5.9l-31,30.9c2.3-0.2,4.6-0.5,6.8-0.9
		L661,722.8z M661,712.8v-5.9l-41.7,41.5c2.1-0.1,4.2-0.2,6.3-0.3L661,712.8z M661,732.7v-5.9L641.6,746c2.6-0.5,5.2-1.1,7.7-1.8
		L661,732.7z M661,736.7l-5.8,5.8c2-0.7,4-1.4,5.8-2.1V736.7z M499.7,501.7l2.7-2.7c-0.8-1.2-1.6-2.4-2.4-3.6l-0.3,0.3V501.7z
		 M499.7,505.7v5.9l6.7-6.7c-0.8-1.2-1.6-2.3-2.4-3.5L499.7,505.7z M499.7,521.5l10.9-10.8c-0.8-1.1-1.7-2.3-2.5-3.4l-8.4,8.4V521.5
		z M512.3,513l-12.6,12.5v5.9l15.1-15.1C513.9,515.3,513.1,514.2,512.3,513z M512,190.7L499.7,203v5.9l15.3-15.2
		C514,192.7,513,191.7,512,190.7z M637.4,485.5l-30.2,30.1v5.9l33.1-32.9C639.3,487.6,638.4,486.6,637.4,485.5z M592.7,267.4
		l-1.3,1.3h3C593.7,268.3,593.2,267.8,592.7,267.4z M621.5,527.2l28.4-28.2c-0.9-1-1.9-2.1-2.8-3.1l-30.2,30
		C618.4,526.3,620,526.8,621.5,527.2z M459.8,161.2l18.9-18.8c-0.6-1.3-1.3-2.7-1.9-4l-23,22.9H459.8z M659,523.6l-5.2,5.2
		C656.4,527.4,658,525.5,659,523.6z M499.7,199l10.4-10.3c-1-1-1.9-2-2.9-3.1l-7.5,7.5V199z M577.3,268.7l7.9-7.9
		c-1-0.9-2.1-1.9-3.1-2.9l-10.8,10.8H577.3z M590.5,265.5c-1.1-0.9-2.1-1.8-3.2-2.8l-6,6h5.9L590.5,265.5z M499.7,189.1l5.6-5.6
		c-0.9-1.1-1.8-2.1-2.8-3.2l-2.9,2.8V189.1z M567.3,268.7l12.8-12.7c-0.9-0.9-1.9-1.8-2.8-2.7c-0.1-0.1-0.2-0.2-0.2-0.2l-15.7,15.6
		H567.3z M553.4,296.7l-3.7,3.6c1.2,0.2,2.4,0.5,3.7,0.7V296.7z M538.4,297.7l15-15v-5.9l-19.7,19.6
		C535.3,296.9,536.8,297.3,538.4,297.7z M553.4,292.7v-5.9l-11.8,11.8c1.6,0.4,3.2,0.8,4.8,1.1L553.4,292.7z M482,149
		c-0.7-1.3-1.3-2.6-2-3.9l-16.2,16.1h5.9L482,149z M485.5,155.5c-0.7-1.3-1.4-2.6-2.1-3.8l-9.6,9.5h5.9L485.5,155.5z M486.9,158.1
		l-3.1,3.1h5C488.2,160.2,487.5,159.1,486.9,158.1z M500.7,178.1c-0.3-0.4-0.7-0.8-1-1.3v2.3L500.7,178.1z"/>
</g>
</svg>
	

</g>
</svg>
